<svg xmlns="http://www.w3.org/2000/svg">
  <symbol id="add" viewBox="0 0 24 24">
    <path d="M12,23.75A11.75,11.75,0,1,0,.25,12,11.764,11.764,0,0,0,12,23.75Zm0-21A9.25,9.25,0,1,1,2.75,12,9.26,9.26,0,0,1,12,2.75Z"/><path d="M6.273,13.25H10.5a.25.25,0,0,1,.25.25v4.227a1.25,1.25,0,0,0,2.5,0V13.5a.25.25,0,0,1,.25-.25h4.227a1.25,1.25,0,0,0,0-2.5H13.5a.25.25,0,0,1-.25-.25V6.272a1.25,1.25,0,1,0-2.5,0V10.5a.25.25,0,0,1-.25.25H6.273a1.25,1.25,0,0,0,0,2.5Z"/>
  </symbol>
  <symbol id="bin" viewBox="0 0 24 24">
    <path d="M19.5,7.5H4.5A.5.5,0,0,0,4,8V22a2,2,0,0,0,2,2H18a2,2,0,0,0,2-2V8A.5.5,0,0,0,19.5,7.5Zm-9.25,13a.75.75,0,0,1-1.5,0v-9a.75.75,0,0,1,1.5,0Zm5,0a.75.75,0,0,1-1.5,0v-9a.75.75,0,0,1,1.5,0Z"/><path d="M22,4H17.25A.25.25,0,0,1,17,3.75V2.5A2.5,2.5,0,0,0,14.5,0h-5A2.5,2.5,0,0,0,7,2.5V3.75A.25.25,0,0,1,6.75,4H2A1,1,0,0,0,2,6H22a1,1,0,0,0,0-2ZM9,3.75V2.5A.5.5,0,0,1,9.5,2h5a.5.5,0,0,1,.5.5V3.75a.25.25,0,0,1-.25.25H9.25A.25.25,0,0,1,9,3.75Z"/>
  </symbol>
</svg>