<svg xmlns="http://www.w3.org/2000/svg">
  <symbol id="add" viewBox="0 0 24 24">
    <path d="M12,23.5A11.5,11.5,0,1,0,.5,12,11.513,11.513,0,0,0,12,23.5ZM6,11h4.75a.25.25,0,0,0,.25-.25V6a1,1,0,0,1,2,0v4.75a.25.25,0,0,0,.25.25H18a1,1,0,0,1,0,2H13.25a.25.25,0,0,0-.25.25V18a1,1,0,0,1-2,0V13.25a.25.25,0,0,0-.25-.25H6a1,1,0,0,1,0-2Z"/>
  </symbol>
  <symbol id="bin" viewBox="0 0 24 24">
    <path d="M19.5,7.5H4.5A.5.5,0,0,0,4,8V22a2,2,0,0,0,2,2H18a2,2,0,0,0,2-2V8A.5.5,0,0,0,19.5,7.5Zm-9.25,13a.75.75,0,0,1-1.5,0v-9a.75.75,0,0,1,1.5,0Zm5,0a.75.75,0,0,1-1.5,0v-9a.75.75,0,0,1,1.5,0Z"/><path d="M22,4H17.25A.25.25,0,0,1,17,3.75V2.5A2.5,2.5,0,0,0,14.5,0h-5A2.5,2.5,0,0,0,7,2.5V3.75A.25.25,0,0,1,6.75,4H2A1,1,0,0,0,2,6H22a1,1,0,0,0,0-2ZM9,3.75V2.5A.5.5,0,0,1,9.5,2h5a.5.5,0,0,1,.5.5V3.75a.25.25,0,0,1-.25.25H9.25A.25.25,0,0,1,9,3.75Z"/>
  </symbol>
  <symbol id="pencil" viewBox="0 0 24 24">
    <path d="M15.067,3.986a.5.5,0,0,0-.354-.148h0a.5.5,0,0,0-.354.147L3.437,14.91a.5.5,0,0,0,0,.707l4.948,4.948a.5.5,0,0,0,.707,0L20.009,9.648a.5.5,0,0,0,0-.706Z"/><path d="M2.43,16.8a.5.5,0,0,0-.489-.127.5.5,0,0,0-.351.364L.084,23.314a.5.5,0,0,0,.133.47.507.507,0,0,0,.47.132l6.272-1.5a.5.5,0,0,0,.237-.84Z"/><path d="M23.2,2.924,21.077.8a2.5,2.5,0,0,0-3.532,0L16.127,2.217a.5.5,0,0,0,0,.707l4.95,4.949a.5.5,0,0,0,.707,0L23.2,6.454A2.5,2.5,0,0,0,23.2,2.924Z"/>
  </symbol>
  <symbol id="share" viewBox="0 0 24 24">
    <path d="M20.5,9a2,2,0,0,0-2-2h-3.25a.25.25,0,0,0-.25.25v1.5a.25.25,0,0,0,.25.25H18a.5.5,0,0,1,.5.5v12a.5.5,0,0,1-.5.5H6a.5.5,0,0,1-.5-.5V9.5A.5.5,0,0,1,6,9h2.75A.25.25,0,0,0,9,8.749v-1.5A.25.25,0,0,0,8.748,7H5.5a2,2,0,0,0-2,2V22a2,2,0,0,0,2,2h13a2,2,0,0,0,2-2Z"/><path d="M10.5,11a1.5,1.5,0,0,0,3,0V5.749a.25.25,0,0,1,.25-.25H15.5A1,1,0,0,0,16.2,3.792l-3.5-3.5a1,1,0,0,0-1.414,0l-3.5,3.5A1,1,0,0,0,8.5,5.5h1.75a.25.25,0,0,1,.25.25Z"/>
  </symbol>
  <symbol id="download" viewBox="0 0 24 24">
    <path d="M24,10.663A5.817,5.817,0,0,0,22.228,6.5a5.711,5.711,0,0,0-3.447-1.585.249.249,0,0,1-.191-.12,7.684,7.684,0,0,0-14.1,2.294.251.251,0,0,1-.227.2A4.59,4.59,0,0,0,0,11.859a4.324,4.324,0,0,0,1.236,3.21,5.529,5.529,0,0,0,3.605,1.377,1,1,0,0,0,.985-1.015,1.023,1.023,0,0,0-1.015-.985,3.3,3.3,0,0,1-2.172-.8A2.374,2.374,0,0,1,2,11.859a2.576,2.576,0,0,1,.954-2.007,2.6,2.6,0,0,1,2.167-.527,1,1,0,0,0,1.2-.919,5.686,5.686,0,0,1,10.82-2.088.959.959,0,0,0,.941.57A3.687,3.687,0,0,1,20.84,7.937,3.752,3.752,0,0,1,22,10.663a3.835,3.835,0,0,1-3.438,3.791,1,1,0,0,0,.132,1.992.961.961,0,0,0,.131-.009A5.807,5.807,0,0,0,24,10.663Z"/><path d="M15.5,17.446H13.75a.25.25,0,0,1-.25-.25V9.946a1.5,1.5,0,1,0-3,0V17.2a.25.25,0,0,1-.25.25H8.5a1,1,0,0,0-.707,1.707l3.5,3.5a1,1,0,0,0,1.414,0l3.5-3.5a1,1,0,0,0-.707-1.707Z"/>
  </symbol>
  <symbol id="copy" viewBox="0 0 24 24">
    <path d="M13.4,4.727a.251.251,0,0,0,.2.265A1.089,1.089,0,0,1,14.424,6.1V7.5a1.244,1.244,0,0,0,1.244,1.244h0A1.244,1.244,0,0,0,16.913,7.5V3.975a1.494,1.494,0,0,0-1.5-1.494H13.689a.246.246,0,0,0-.177.074.249.249,0,0,0-.073.177C13.441,3.205,13.44,4.224,13.4,4.727Z"/><path d="M8.954,21.262A1.244,1.244,0,0,0,7.71,20.018H3.484a1.073,1.073,0,0,1-1-1.136V6.1a1.086,1.086,0,0,1,.842-1.115.25.25,0,0,0,.2-.258c-.039-.766-.051-1.6-.055-2a.25.25,0,0,0-.25-.247H1.5A1.494,1.494,0,0,0,0,3.975V21.012a1.493,1.493,0,0,0,1.494,1.493H7.71a1.244,1.244,0,0,0,1.244-1.243Z"/><path d="M11.937,4.472V2.484a.5.5,0,0,0-.5-.5h-.758a.251.251,0,0,1-.249-.222,1.989,1.989,0,0,0-3.953,0,.249.249,0,0,1-.249.222H5.473a.5.5,0,0,0-.5.5V4.472a.5.5,0,0,0,.5.5H11.44A.5.5,0,0,0,11.937,4.472Z"/><path d="M19.02,17.269H15.041a.75.75,0,1,0,0,1.5H19.02a.75.75,0,1,0,0-1.5Z"/><path d="M14.291,14.54a.75.75,0,0,0,.75.749h2.486a.75.75,0,1,0,0-1.5H15.041A.75.75,0,0,0,14.291,14.54Z"/><path d="M23.5,13.46a1.991,1.991,0,0,0-.584-1.409l-1.406-1.4a1.994,1.994,0,0,0-1.41-.584H12.494A1.993,1.993,0,0,0,10.5,12.055V22a2,2,0,0,0,2,2h9a2,2,0,0,0,2-2Zm-11-.4a1,1,0,0,1,1-1l6.187,0a1,1,0,0,1,.707.292l.818.816a1,1,0,0,1,.293.708V21a1,1,0,0,1-1,1h-7a1,1,0,0,1-1-1Z"/>
  </symbol>
</svg>