<!-- Courtesy of https://heroicons.com/ -->
<svg xmlns="http://www.w3.org/2000/svg">
  <symbol id="add" viewBox="0 0 24 24">
    <path stroke-linecap="round" stroke-linejoin="round" d="M12 9v3m0 0v3m0-3h3m-3 0H9m12 0a9 9 0 11-18 0 9 9 0 0118 0z" />
  </symbol>
  <symbol id="bin" viewBox="0 0 24 24">
    <path stroke-linecap="round" stroke-linejoin="round" d="M19 7l-.867 12.142A2 2 0 0116.138 21H7.862a2 2 0 01-1.995-1.858L5 7m5 4v6m4-6v6m1-10V4a1 1 0 00-1-1h-4a1 1 0 00-1 1v3M4 7h16" />
  </symbol>
  <symbol id="pencil" viewBox="0 0 24 24">
    <path stroke-linecap="round" stroke-linejoin="round" d="M15.232 5.232l3.536 3.536m-2.036-5.036a2.5 2.5 0 113.536 3.536L6.5 21.036H3v-3.572L16.732 3.732z" />
  </symbol>
  <symbol id="share" viewBox="0 0 24 24">
    <path stroke-linecap="round" stroke-linejoin="round" d="M8 7H5a2 2 0 00-2 2v9a2 2 0 002 2h14a2 2 0 002-2V9a2 2 0 00-2-2h-3m-1 4l-3 3m0 0l-3-3m3 3V4" />
  </symbol>
  <symbol id="copy" viewBox="0 0 24 24">
    <path stroke-linecap="round" stroke-linejoin="round" d="M8 5H6a2 2 0 00-2 2v12a2 2 0 002 2h10a2 2 0 002-2v-1M8 5a2 2 0 002 2h2a2 2 0 002-2M8 5a2 2 0 012-2h2a2 2 0 012 2m0 0h2a2 2 0 012 2v3m2 4H10m0 0l3-3m-3 3l3 3" />
  </symbol>
  <symbol id="chevron-down" viewBox="0 0 24 24">
    <path stroke-linecap="round" stroke-linejoin="round" d="M19 9l-7 7-7-7" />
  </symbol>
  <symbol id="chevron-up" viewBox="0 0 24 24">
    <path stroke-linecap="round" stroke-linejoin="round" d="M5 15l7-7 7 7" />
  </symbol>
</svg>